<svg width="107" height="119" viewBox="0 0 107 119" fill="none" xmlns="http://www.w3.org/2000/svg">
<g style="mix-blend-mode:hard-light">
<g filter="url(#filter0_b)">
<path d="M48.4251 3.56477C51.2621 1.44979 55.1514 1.44979 57.9883 3.56477L103.195 37.2673C105.22 38.7772 106.413 41.1549 106.413 43.681V111C106.413 115.418 102.832 119 98.4135 119H7.99999C3.58171 119 0 115.418 0 111V43.681C0 41.1549 1.19314 38.7771 3.21841 37.2673L48.4251 3.56477ZM53.2067 35.2593C50.758 35.2593 48.7728 37.2444 48.7728 39.6931V59.4868C48.7728 60.7111 47.7803 61.7037 46.5559 61.7037C45.3315 61.7037 44.3389 60.7111 44.3389 59.4868V39.6931C44.3389 37.2444 42.3538 35.2593 39.905 35.2593C37.4563 35.2593 35.4711 37.2444 35.4711 39.6931V59.4868C35.4711 60.7111 34.4786 61.7037 33.2542 61.7037C32.0298 61.7037 31.0373 60.7111 31.0373 59.4868V39.6931C31.0373 37.2444 29.0521 35.2593 26.6034 35.2593C24.1546 35.2593 22.1695 37.2444 22.1695 39.6931V61.7037C22.1695 66.2374 24.451 70.2296 27.9378 72.6104C31.5866 75.1019 35.4711 78.5077 35.4711 82.9259V105.751C35.4711 108.2 37.4563 110.185 39.905 110.185C42.3538 110.185 44.3389 108.2 44.3389 105.751V82.9259C44.3389 78.5076 48.2235 75.1019 51.8723 72.6104C55.3591 70.2296 57.6406 66.2374 57.6406 61.7037V39.6931C57.6406 37.2444 55.6555 35.2593 53.2067 35.2593ZM62.0745 52.8889V74.8994C62.0745 77.3482 64.0596 79.3333 66.5084 79.3333C68.9572 79.3333 70.9423 81.3185 70.9423 83.7672V105.751C70.9423 108.2 72.9274 110.185 75.3762 110.185C77.825 110.185 79.8101 108.2 79.8101 105.751V43.2592C79.8101 38.841 76.053 35.1041 72.0784 37.0337C66.1696 39.9022 62.0745 45.9433 62.0745 52.8889Z" fill="url(#paint0_linear)"/>
</g>
</g>
<defs>
<filter id="filter0_b" x="-10" y="-8.02146" width="126.413" height="137.021" filterUnits="userSpaceOnUse" color-interpolation-filters="sRGB">
<feFlood flood-opacity="0" result="BackgroundImageFix"/>
<feGaussianBlur in="BackgroundImage" stdDeviation="5"/>
<feComposite in2="SourceAlpha" operator="in" result="effect1_backgroundBlur"/>
<feBlend mode="normal" in="SourceGraphic" in2="effect1_backgroundBlur" result="shape"/>
</filter>
<linearGradient id="paint0_linear" x1="53.2067" y1="0" x2="53.2067" y2="119" gradientUnits="userSpaceOnUse">
<stop stop-color="#FF5531"/>
<stop offset="1" stop-color="#771B13"/>
</linearGradient>
</defs>
</svg>
